<svg xmlns="http://www.w3.org/2000/svg" width="22" height="22" viewBox="0 0 22 22">
  <metadata><?xpacket begin="﻿" id="W5M0MpCehiHzreSzNTczkc9d"?>
<x:xmpmeta xmlns:x="adobe:ns:meta/" x:xmptk="Adobe XMP Core 5.6-c138 79.159824, 2016/09/14-01:09:01        ">
   <rdf:RDF xmlns:rdf="http://www.w3.org/1999/02/22-rdf-syntax-ns#">
      <rdf:Description rdf:about=""/>
   </rdf:RDF>
</x:xmpmeta>
                                                                                                    
                                                                                                    
                                                                                                    
                                                                                                    
                                                                                                    
                                                                                                    
                                                                                                    
                                                                                                    
                                                                                                    
                                                                                                    
                                                                                                    
                                                                                                    
                                                                                                    
                                                                                                    
                                                                                                    
                                                                                                    
                                                                                                    
                                                                                                    
                                                                                                    
                                                                                                    
                           
<?xpacket end="w"?></metadata>
<defs>
    <style>
      .cls-1 {
        fill: #fff;
        fill-rule: evenodd;
      }
    </style>
  </defs>
  <path class="cls-1" d="M1808,257a11,11,0,1,0,11,11A11.009,11.009,0,0,0,1808,257Zm0,20.565a9.565,9.565,0,1,1,9.57-9.565A9.583,9.583,0,0,1,1808,277.565Zm6.7-9.565a0.715,0.715,0,0,1,.71-0.717h0.68a8.128,8.128,0,0,0-7.37-7.377v0.681a0.72,0.72,0,0,1-1.44,0v-0.681a8.128,8.128,0,0,0-7.37,7.377h0.68a0.717,0.717,0,0,1,0,1.434h-0.68a8.128,8.128,0,0,0,7.37,7.377v-0.681a0.72,0.72,0,0,1,1.44,0v0.681a8.128,8.128,0,0,0,7.37-7.377h-0.68A0.715,0.715,0,0,1,1814.7,268Zm-2.96-2.774-2.03,4.06a0.7,0.7,0,0,1-.33.316l-4.06,2.038a0.714,0.714,0,0,1-.96-0.962l2.04-4.06a0.7,0.7,0,0,1,.31-0.33l4.06-2.023a0.7,0.7,0,0,1,.82.143A0.716,0.716,0,0,1,1811.74,265.226Z" transform="translate(-1797 -257)"/>
</svg>
