<svg xmlns="http://www.w3.org/2000/svg" width="20" height="21" viewBox="0 0 20 21">
  <metadata><?xpacket begin="﻿" id="W5M0MpCehiHzreSzNTczkc9d"?>
<x:xmpmeta xmlns:x="adobe:ns:meta/" x:xmptk="Adobe XMP Core 5.6-c138 79.159824, 2016/09/14-01:09:01        ">
   <rdf:RDF xmlns:rdf="http://www.w3.org/1999/02/22-rdf-syntax-ns#">
      <rdf:Description rdf:about=""/>
   </rdf:RDF>
</x:xmpmeta>
                                                                                                    
                                                                                                    
                                                                                                    
                                                                                                    
                                                                                                    
                                                                                                    
                                                                                                    
                                                                                                    
                                                                                                    
                                                                                                    
                                                                                                    
                                                                                                    
                                                                                                    
                                                                                                    
                                                                                                    
                                                                                                    
                                                                                                    
                                                                                                    
                                                                                                    
                                                                                                    
                           
<?xpacket end="w"?></metadata>
<defs>
    <style>
      .cls-1 {
        fill: #fff;
        fill-rule: evenodd;
      }
    </style>
  </defs>
  <path id="ic_register" class="cls-1" d="M1809.27,212.381a1.22,1.22,0,0,1-.66.457l-1.33.359a1.161,1.161,0,0,1-.32.043,1.2,1.2,0,0,1-.68-0.212,1.171,1.171,0,0,1-.5-0.862l-0.12-1.353a1.2,1.2,0,0,1,.21-0.78l0.05-.069h-4.73a0.688,0.688,0,1,1,0-1.376h5.72l1.28-1.806h-7a0.689,0.689,0,1,1,0-1.377l7.99-.02,2.99-4.246V198a0.919,0.919,0,0,0-.92-0.934h-2.3v1.794a1.532,1.532,0,0,1-1.55,1.517h-4.61a1.509,1.509,0,0,1-1.53-1.517v-1.794h-2.32a0.936,0.936,0,0,0-.94.934V214.04a0.955,0.955,0,0,0,.94.956h12.31a0.938,0.938,0,0,0,.92-0.956V208.3Zm-8.08-10.159h7.8a0.688,0.688,0,1,1,0,1.376h-7.8A0.688,0.688,0,1,1,1801.19,202.222Zm1.61-2.753h4.61a0.627,0.627,0,0,0,.63-0.626v-2.62a0.626,0.626,0,0,0-.63-0.625h-0.7a1.62,1.62,0,0,0-3.24,0h-0.67a0.626,0.626,0,0,0-.63.625v2.62A0.627,0.627,0,0,0,1802.8,199.469Zm2.29-4.578a0.727,0.727,0,0,1,.73.707h-1.45A0.725,0.725,0,0,1,1805.09,194.891ZM1818,198.22a0.479,0.479,0,0,0-.19-0.286l-1.15-.794a0.459,0.459,0,0,0-.63.109l-8.16,11.587,1.88,1.3,8.17-11.586A0.437,0.437,0,0,0,1818,198.22Zm-11.42,12.507,0.12,1.361a0.284,0.284,0,0,0,.11.193,0.278,0.278,0,0,0,.15.049,0.2,0.2,0,0,0,.07-0.01l1.34-.361a0.228,0.228,0,0,0,.14-0.1l0.5-.709-1.88-1.3-0.5.71A0.221,0.221,0,0,0,1806.58,210.727Z" transform="translate(-1798 -194)"/>
</svg>
