<svg xmlns="http://www.w3.org/2000/svg" width="13" height="18" viewBox="0 0 13 18">
  <metadata><?xpacket begin="﻿" id="W5M0MpCehiHzreSzNTczkc9d"?>
<x:xmpmeta xmlns:x="adobe:ns:meta/" x:xmptk="Adobe XMP Core 5.6-c138 79.159824, 2016/09/14-01:09:01        ">
   <rdf:RDF xmlns:rdf="http://www.w3.org/1999/02/22-rdf-syntax-ns#">
      <rdf:Description rdf:about=""/>
   </rdf:RDF>
</x:xmpmeta>
                                                                                                    
                                                                                                    
                                                                                                    
                                                                                                    
                                                                                                    
                                                                                                    
                                                                                                    
                                                                                                    
                                                                                                    
                                                                                                    
                                                                                                    
                                                                                                    
                                                                                                    
                                                                                                    
                                                                                                    
                                                                                                    
                                                                                                    
                                                                                                    
                                                                                                    
                                                                                                    
                           
<?xpacket end="w"?></metadata>
<defs>
    <style>
      .cls-1 {
        fill: #9b9eab;
        fill-rule: evenodd;
      }
    </style>
  </defs>
  <path id="ic_up_down" class="cls-1" d="M2977.81,427.363h11.38a0.774,0.774,0,0,0,.57-0.243,0.81,0.81,0,0,0,0-1.151l-5.69-5.728a0.79,0.79,0,0,0-1.14,0l-5.69,5.728a0.81,0.81,0,0,0,0,1.151A0.774,0.774,0,0,0,2977.81,427.363Zm11.38,3.274h-11.38a0.774,0.774,0,0,0-.57.243,0.81,0.81,0,0,0,0,1.151l5.69,5.728a0.79,0.79,0,0,0,1.14,0l5.69-5.728a0.81,0.81,0,0,0,0-1.151A0.774,0.774,0,0,0,2989.19,430.637Z" transform="translate(-2977 -420)"/>
</svg>
