<?xml version="1.0" encoding="utf-8"?>
<!-- Generator: Adobe Illustrator 21.0.0, SVG Export Plug-In . SVG Version: 6.00 Build 0)  -->
<svg version="1.1" id="Layer_1" xmlns="http://www.w3.org/2000/svg" xmlns:xlink="http://www.w3.org/1999/xlink" x="0px" y="0px"
	 viewBox="0 0 447 190.5" style="enable-background:new 0 0 447 190.5;" xml:space="preserve">
<style type="text/css">
	.st0{fill:#BFBFBF;}
	.st1{fill:#CCCDCE;}
	.st2{fill:url(#SVGID_1_);}
	.st3{fill:url(#SVGID_2_);}
	.st4{fill:url(#SVGID_3_);}
	.st5{fill:url(#SVGID_4_);}
</style>
<g>
	<path class="st0" d="M133.8,130V81.5h8.2v13h8.6c7.5,0,11.2,3.9,11.2,11.8v11.8c0,7.9-3.7,11.8-11.2,11.8H133.8z M153.6,106.6
		c0-2.4-1.1-3.7-3.4-3.7H142v18.7h8.2c2.3,0,3.4-1.2,3.4-3.7V106.6z"/>
	<path class="st0" d="M167.6,89.8v-8.3h8.3v8.3H167.6z M167.6,130V94.5h8.3V130H167.6z"/>
	<path class="st0" d="M193.3,130c-4.1,0-7.1-1-8.9-2.9c-1.8-1.9-2.7-5-2.7-9.2v-11.3c0-4.3,0.9-7.4,2.8-9.3c1.8-1.9,4.8-2.8,8.8-2.8
		h5.7c4.1,0,7.1,1,8.9,2.9c1.8,1.9,2.7,5,2.7,9.2v11.3c0,4.1-0.9,7.1-2.6,9.1c-1.8,2-4.5,3-8.3,3H193.3z M202.5,106.6
		c0-2.4-1-3.6-3-3.6h-6.5c-2,0-3,1.1-3,3.3V118c0,1.2,0.2,2,0.7,2.7c0.5,0.6,1.2,0.9,2.3,0.9h6.5c2,0,3-1.1,3-3.3V106.6z"/>
	<path class="st0" d="M216,130v-8.4h17.6c1.8,0,2.6-0.8,2.6-2.5v-1.2c0-1.7-0.9-2.5-2.6-2.5h-8.2c-3.5,0-6-0.7-7.8-2
		c-1.7-1.4-2.6-3.5-2.6-6.5v-1.9c0-3.6,0.9-6.3,2.6-7.9c1.8-1.6,4.4-2.5,7.9-2.5h16.7v8.4h-17.1c-1.7,0-2.5,0.8-2.5,2.5v0.6
		c0,1.8,0.9,2.7,2.7,2.7h8.4c3.3,0,5.8,0.7,7.6,2c1.8,1.4,2.6,3.5,2.6,6.4v2.3c0,7-3.4,10.5-10.2,10.5H216z"/>
	<path class="st1" d="M249,130v-8.4h17.6c1.8,0,2.6-0.8,2.6-2.5v-1.2c0-1.7-0.9-2.5-2.6-2.5h-8.2c-3.5,0-6-0.7-7.8-2
		c-1.7-1.4-2.6-3.5-2.6-6.5v-1.9c0-3.6,0.9-6.3,2.6-7.9c1.8-1.6,4.4-2.5,7.9-2.5h16.7v8.4h-17.1c-1.7,0-2.5,0.8-2.5,2.5v0.6
		c0,1.8,0.9,2.7,2.7,2.7h8.4c3.3,0,5.8,0.7,7.6,2c1.8,1.4,2.6,3.5,2.6,6.4v2.3c0,7-3.4,10.5-10.2,10.5H249z"/>
	<path class="st1" d="M293.1,130c-7.5,0-11.3-3.9-11.3-11.8v-11.8c0-7.9,3.8-11.8,11.3-11.8h5.5c7.5,0,11.3,3.9,11.3,11.8v9.1h-20
		v2.5c0,2.4,1.1,3.7,3.2,3.7h15.8v8.4H293.1z M302.1,106.1c0-2.5-1.1-3.7-3.3-3.7h-5.7c-2.2,0-3.2,1.2-3.2,3.7v2.9h12.2V106.1z"/>
	<path class="st1" d="M325.9,130c-7.1,0-10.7-4-10.7-12V81.5h8.3v13h7.4v7h-7.4v16.7c0,2.7,1.1,4.1,3.2,4.1h4v7.7H325.9z"/>
	<path class="st1" d="M356.4,130v-3.9c-0.8,1.5-1.8,2.5-2.8,3c-1.1,0.6-2.6,0.8-4.6,0.8h-4.4c-5.9,0-8.8-3.8-8.8-11.5V94.5h8.1V118
		c0,2.4,1,3.7,2.9,3.7h6.1c1.2,0,2-0.3,2.6-0.9c0.5-0.6,0.8-1.6,0.8-2.8V94.5h8.2V130H356.4z"/>
	<path class="st1" d="M370.2,141V94.5h16.7c3.9,0,6.8,1,8.5,3.1c1.8,2.1,2.7,5.3,2.7,9.6v11c0,7.8-3.7,11.7-11.2,11.7h-8.5V141
		H370.2z M389.9,108.8c0-1.8-0.2-3.3-0.6-4.3c-0.4-1-1.3-1.5-2.8-1.5h-8.2v18.6h8.2c2.2,0,3.3-1.2,3.3-3.7V108.8z"/>
</g>
<g>
	<linearGradient id="SVGID_1_" gradientUnits="userSpaceOnUse" x1="66.1815" y1="66.9869" x2="114.8817" y2="66.9869">
		<stop  offset="0" style="stop-color:#00D4B9"/>
		<stop  offset="0.3346" style="stop-color:#00BCAD"/>
		<stop  offset="0.7425" style="stop-color:#00A5A1"/>
		<stop  offset="1" style="stop-color:#009D9D"/>
	</linearGradient>
	<rect x="66.2" y="57.6" class="st2" width="48.7" height="18.8"/>
	
		<linearGradient id="SVGID_2_" gradientUnits="userSpaceOnUse" x1="-175.8978" y1="6.6993" x2="-127.1976" y2="6.6993" gradientTransform="matrix(0 -1 1 0 98.7723 -69.6208)">
		<stop  offset="0" style="stop-color:#009D9D"/>
		<stop  offset="1" style="stop-color:#00D4B9"/>
	</linearGradient>
	<polygon class="st3" points="114.9,57.6 114.9,106.3 96.1,106.3 96.1,57.6 	"/>
</g>
<linearGradient id="SVGID_3_" gradientUnits="userSpaceOnUse" x1="-61.3801" y1="-298.1451" x2="-12.6799" y2="-298.1451" gradientTransform="matrix(-1 0 0 -1 29.1515 -177.1382)">
	<stop  offset="0" style="stop-color:#08C361"/>
	<stop  offset="1" style="stop-color:#009559"/>
</linearGradient>
<polygon class="st4" points="41.8,111.6 90.5,111.6 90.5,130.4 41.8,130.4 "/>
<linearGradient id="SVGID_4_" gradientUnits="userSpaceOnUse" x1="189.2342" y1="-120.8624" x2="237.9344" y2="-120.8624" gradientTransform="matrix(0 1 -1 0 -69.6208 -107.5173)">
	<stop  offset="0" style="stop-color:#009559"/>
	<stop  offset="1" style="stop-color:#08C361"/>
</linearGradient>
<polygon class="st5" points="41.8,130.4 41.8,81.7 60.7,81.7 60.7,130.4 "/>
</svg>
